<?xml version="1.0" encoding="utf-8"?>
<!-- Generator: Adobe Illustrator 19.2.1, SVG Export Plug-In . SVG Version: 6.00 Build 0)  -->
<svg version="1.1" xmlns="http://www.w3.org/2000/svg" xmlns:xlink="http://www.w3.org/1999/xlink" x="0px" y="0px"
	 viewBox="0 0 62.52 46.5" enable-background="new 0 0 62.52 46.5" xml:space="preserve">
<g id="text">
	<g id="text_1_">
		
			<linearGradient id="SVGID_1_" gradientUnits="userSpaceOnUse" x1="31.2598" y1="252" x2="31.2598" y2="205.5" gradientTransform="matrix(1 0 0 -1 0 252)">
			<stop  offset="0" style="stop-color:#FFFFFF"/>
			<stop  offset="1" style="stop-color:#E6E6DD"/>
		</linearGradient>
		<path fill="url(#SVGID_1_)" d="M62.52,0v42.27c0,2.33-1.91,4.23-4.23,4.23H4.23C1.91,46.5,0,44.59,0,42.27V0H62.52z"/>
		<g>
			<path fill="#593586" d="M26.42,36.71c-1.53,0-2.58,0.07-3.78,0.24v-1.84c-0.84,1.15-2.23,1.96-4.16,1.96
				c-4.26,0-6.17-2.96-6.17-5.91c0-2.94,2.11-6.17,6.38-6.17c1.48,0,2.96,0.67,3.95,1.96v-6.29h-2.06v-0.81h1.02
				c1.57,0,2.79-0.17,3.89-0.43V35.9h1.91v0.81C27.41,36.71,26.42,36.71,26.42,36.71z M22.64,29.6c0-1.79-1.39-3.8-3.73-3.8
				c-2.32,0-3.73,1.65-3.73,5.45c0,3.18,1.46,4.9,3.8,4.9c1.85,0,3.66-1.41,3.66-3.37L22.64,29.6L22.64,29.6z"/>
			<path fill="#593586" d="M37.2,19.51c-0.81,0-1.68-0.43-1.68-1.27c0-0.93,1.05-1.19,1.05-1.41c0-0.12-0.24-0.43-0.91-0.43
				c-1.27,0-2.35,1.01-2.35,3.49v5.48h2.58v0.86h-2.58v9.66h2.46v0.81H28.3v-0.81h2.15v-9.66h-2.29v-0.86h2.29v-3.03
				c0-5.14,2.73-6.6,5.24-6.6c1.57,0,3.33,0.86,3.33,2.29C39.02,19.08,37.99,19.51,37.2,19.51"/>
			<path fill="#593586" d="M42.49,37.1c-1.94,0-3.73-0.63-4.55-1.39v1.01h-0.86v-3.8h0.67c0.43,2.06,2.08,3.42,4.98,3.42
				c2.75,0,3.42-1.29,3.42-2.1c0-3.33-8.9-0.08-8.9-5.57c0-1.94,1.68-3.66,5.05-3.66c1.31,0,2.7,0.36,3.87,1.05v-0.67h0.86v3.23
				h-0.6c-0.21-1.57-2.03-2.87-4.13-2.87c-2.54,0-3.37,1.17-3.37,1.96c0,2.99,8.82,0.05,8.82,5.43
				C47.75,35.66,45.76,37.1,42.49,37.1"/>
			<path fill="#BC2F84" d="M47.77,21.09c0.11,0,0.3-0.03,0.8-0.25c0.52-0.22,1.67-0.86,3.05-2.01c1.35-1.13,3.02-3.27,3.02-5.44
				S52.9,9.95,51.1,9.95s-3.33,1.3-3.33,1.3h-0.03c0,0-1.52-1.3-3.33-1.3s-3.55,1.3-3.55,3.45c0,2.17,1.68,4.3,3.02,5.44
				c1.3,1.1,2.54,1.79,3.06,2.01c0.52,0.22,0.69,0.25,0.8,0.25H47.77z"/>
			<path fill="#FFFFFF" d="M43.64,16.99v-0.06c-0.01-1.57-0.41-3.4-0.57-4.11l-0.01-0.06l0.98-0.33l0.44-0.11
				c0.75-0.18,1.41-0.27,2-0.27c0.51,0,0.93,0.07,1.27,0.22c0.34-0.14,0.76-0.22,1.27-0.22c0.58,0,1.26,0.09,2,0.27l0.43,0.11
				l0.99,0.33l-0.02,0.06c-0.17,0.71-0.56,2.54-0.57,4.11v0.06H43.64z M51.44,16.63c0.02-1.31,0.36-2.73,0.64-3.7l-0.24-0.08
				l-0.03-0.01c-0.37,0.35-0.86,1.06-1.06,1.99l0.33,0.09v0.28L51,15.19c-0.75-0.2-1.38-0.3-1.88-0.3c-0.43,0-0.76,0.05-1.03,0.14
				c-0.12,0.04-0.22,0.09-0.31,0.16l-0.03,0.03l-0.03-0.03c-0.08-0.06-0.19-0.11-0.31-0.16c-0.26-0.09-0.6-0.14-1.03-0.14
				c-0.49,0-1.13,0.1-1.87,0.3l-0.08,0.02v-0.28l0.33-0.09c-0.2-0.93-0.69-1.65-1.06-1.99l-0.03,0.01l-0.23,0.08
				c0.3,0.98,0.64,2.39,0.64,3.7L51.44,16.63L51.44,16.63z M44.06,12.75c0.59,0.58,0.98,1.24,1.14,1.97
				c0.57-0.13,1.08-0.19,1.53-0.19c0.4,0,0.74,0.05,1.01,0.17c0.27-0.11,0.61-0.17,1.01-0.17c0.45,0,0.97,0.07,1.53,0.19
				c0.17-0.73,0.55-1.39,1.14-1.97c-0.74-0.18-1.4-0.27-1.95-0.27c-0.54,0-0.97,0.06-1.3,0.19c-0.15,0.06-0.28,0.13-0.4,0.2
				l-0.03,0.03l-0.03-0.03c-0.11-0.08-0.25-0.15-0.4-0.2c-0.33-0.13-0.77-0.19-1.3-0.19C45.46,12.48,44.81,12.57,44.06,12.75"/>
		</g>
	</g>
</g>
<g id="end" display="none">
</g>
</svg>
