<?xml version="1.0" encoding="utf-8"?>
<!-- Generator: Adobe Illustrator 19.2.1, SVG Export Plug-In . SVG Version: 6.00 Build 0)  -->
<svg version="1.1" xmlns="http://www.w3.org/2000/svg" xmlns:xlink="http://www.w3.org/1999/xlink" x="0px" y="0px"
	 viewBox="0 0 64.32 125" enable-background="new 0 0 64.32 125" xml:space="preserve">
<g id="text">
	<g>
		<g id="text_3_">
			
				<linearGradient id="SVGID_1_" gradientUnits="userSpaceOnUse" x1="-155.3397" y1="664" x2="-155.3397" y2="539" gradientTransform="matrix(1 0 0 -1 187.5 664)">
				<stop  offset="0" style="stop-color:#FFFFFF"/>
				<stop  offset="1" style="stop-color:#E6E6DD"/>
			</linearGradient>
			<path fill="url(#SVGID_1_)" d="M64.32,0v120.64c0,2.4-1.96,4.36-4.36,4.36H4.36c-2.4,0-4.36-1.96-4.36-4.36V0H64.32z"/>
			<g>
				<path fill="#593586" d="M28.21,101.55c-1.58,0-2.66,0.07-3.89,0.24V99.9c-0.86,1.18-2.29,2.02-4.28,2.02
					c-4.38,0-6.35-3.05-6.35-6.08c0-3.02,2.17-6.35,6.57-6.35c1.52,0,3.05,0.69,4.06,2.02v-6.47H22.2v-0.84h1.05
					c1.62,0,2.87-0.17,4.01-0.44v16.95h1.97v0.84C29.23,101.55,28.21,101.55,28.21,101.55z M24.32,94.24c0-1.85-1.43-3.91-3.84-3.91
					c-2.39,0-3.84,1.7-3.84,5.61c0,3.28,1.5,5.04,3.91,5.04c1.9,0,3.76-1.45,3.76-3.47L24.32,94.24L24.32,94.24z"/>
				<path fill="#593586" d="M39.3,83.86c-0.84,0-1.72-0.44-1.72-1.31c0-0.96,1.08-1.23,1.08-1.45c0-0.12-0.24-0.44-0.93-0.44
					c-1.31,0-2.41,1.04-2.41,3.59v5.64h2.66v0.89h-2.66v9.94h2.53v0.84h-7.7v-0.84h2.21v-9.94H30v-0.89h2.36v-3.12
					c0-5.29,2.8-6.79,5.39-6.79c1.62,0,3.42,0.89,3.42,2.36C41.18,83.41,40.11,83.86,39.3,83.86"/>
				<path fill="#593586" d="M44.74,101.95c-1.99,0-3.84-0.64-4.68-1.43v1.04h-0.89v-3.91h0.69c0.44,2.12,2.14,3.52,5.12,3.52
					c2.83,0,3.52-1.32,3.52-2.16c0-3.42-9.16-0.08-9.16-5.73c0-1.99,1.72-3.76,5.19-3.76c1.35,0,2.78,0.37,3.98,1.08V89.9h0.89v3.32
					h-0.62c-0.22-1.62-2.09-2.95-4.25-2.95c-2.61,0-3.47,1.2-3.47,2.02c0,3.07,9.08,0.05,9.08,5.58
					C50.16,100.47,48.11,101.95,44.74,101.95"/>
				<path fill="#BC2F84" d="M50.17,85.49c0.11,0,0.3-0.03,0.83-0.25c0.53-0.23,1.72-0.89,3.14-2.06c1.39-1.16,3.11-3.36,3.11-5.59
					c0-2.23-1.79-3.55-3.65-3.55c-1.86,0-3.42,1.34-3.42,1.34h-0.03c0,0-1.57-1.34-3.42-1.34c-1.86,0-3.65,1.33-3.65,3.55
					c0,2.23,1.72,4.43,3.11,5.59c1.34,1.13,2.61,1.84,3.14,2.06c0.53,0.23,0.71,0.25,0.83,0.25H50.17z"/>
				<path fill="#FFFFFF" d="M45.92,81.26V81.2c-0.01-1.62-0.42-3.5-0.58-4.23l-0.01-0.06l1.01-0.34l0.45-0.11
					c0.77-0.18,1.45-0.28,2.06-0.28c0.52,0,0.96,0.07,1.31,0.23c0.35-0.15,0.78-0.23,1.31-0.23c0.6,0,1.3,0.1,2.06,0.28l0.44,0.11
					l1.02,0.34l-0.02,0.06c-0.17,0.73-0.57,2.61-0.58,4.23v0.06H45.92z M53.95,80.9c0.02-1.35,0.37-2.8,0.66-3.81L54.36,77
					l-0.03-0.01c-0.38,0.36-0.88,1.09-1.09,2.05l0.34,0.1v0.29l-0.08-0.02c-0.78-0.21-1.42-0.31-1.93-0.31
					c-0.44,0-0.78,0.05-1.06,0.15c-0.12,0.04-0.23,0.1-0.32,0.17l-0.03,0.03l-0.03-0.03c-0.09-0.06-0.2-0.11-0.32-0.17
					c-0.27-0.1-0.62-0.15-1.06-0.15c-0.51,0-1.16,0.1-1.93,0.31l-0.08,0.02v-0.29l0.34-0.1c-0.21-0.96-0.71-1.7-1.09-2.05L45.94,77
					l-0.24,0.08c0.3,1.01,0.65,2.46,0.66,3.81L53.95,80.9L53.95,80.9z M46.36,76.9c0.61,0.6,1.01,1.28,1.18,2.03
					c0.58-0.13,1.11-0.2,1.58-0.2c0.41,0,0.76,0.05,1.04,0.17c0.28-0.11,0.63-0.17,1.04-0.17c0.46,0,0.99,0.07,1.58,0.2
					c0.17-0.75,0.57-1.43,1.18-2.03c-0.76-0.18-1.44-0.28-2-0.28c-0.56,0-0.99,0.06-1.34,0.19c-0.16,0.06-0.29,0.13-0.41,0.21
					l-0.03,0.03l-0.03-0.03c-0.11-0.09-0.25-0.16-0.41-0.21c-0.34-0.13-0.79-0.19-1.34-0.19C47.8,76.62,47.13,76.72,46.36,76.9"/>
				<path fill="#C63033" d="M26.32,30.96c0,0-0.86-2.47,0.71-5.78c0.93-1.95,1.27-3.14,0.87-5.77c-0.11-0.75-0.55-1.96-0.55-1.96
					s3.82-1.11,7.47,1.57c1.39,1.02,4.26,3.23,6.94,3.07c2.2-0.13,4.11-2.87,1.36-5.66c-0.99,3.01-4.16,2.01-6.14,1.09
					c-1.05-0.5-4.29-2.32-7.74-1.79c-1.84,0.28-3.01,1.01-3.01,1.01c0.84,3.16,0.64,4.54-0.61,6.02
					C24.48,24.11,21.69,27.68,26.32,30.96"/>
				<path fill="#C63033" d="M22.62,19.21c0,0-0.73-1.2-1.98-0.98c-0.65,0.11-1.63,1-2.58,0.04c0,0-0.21,1.82,1.5,1.45
					C20.98,19.4,21.35,18.22,22.62,19.21"/>
				<path fill="#C63033" d="M25.51,10.94c0.66-0.43,1.21-0.84,2.09,0.17c2.03,2.34-2.59,5.44-2.59,5.44
					c0.39,0.48,0.49,1.14,0.61,1.93c0.3,2-1.02,3.97-1.02,3.97l-3.22-0.37l-0.29-2.23c0.31,0.43,0.82,0.52,1.43,0.26
					c0.76-0.31,0.79-1.06,0.64-1.78c-0.2-1-0.97-1.54-1.75-1.42c-0.78,0.12-0.99,0.83-0.99,0.83c-1.56-0.71-1.1-2.33-1.1-2.33
					c0.1-0.78-0.78-0.45-0.78-0.45c1.54-1.42,2.31-1.73,3.09-1.79c1.35-0.1,1.88,1.01,1.88,1.01c0.45-0.78,1.19-1.73,1.19-1.73
					c-0.93-0.27-2,0.36-2,0.36l0.75-1.58L25.51,10.94z"/>
				<path fill="#C63033" d="M42.56,28.05c-4.82,4.59-10.03,1.78-10.43-2.06c-0.17-1.67-0.6-5.72-3.58-7.91c0,0,2.23,0.24,5.32,5.54
					C37.71,30.17,42.56,28.05,42.56,28.05"/>
				<path fill="#C63033" d="M28.99,14.96c0,0,1.45-0.31,3.07-2.8c1.73-2.87,4.36-3.35,6.89-0.47c0,0-2.64-0.82-4.64,1.36
					C32.53,14.99,30.97,14.87,28.99,14.96"/>
				<path fill="#255485" d="M45.02,22.05c-0.32,2.28-4.89,2.74-8.4-0.32c-3.8-3.32-6.01-3.59-6.01-3.59
					c1.72,1.33,2.75,2.64,4.16,4.62c2.69,3.79,5.37,4.36,6.87,4.36C44.69,27.11,45.94,25.04,45.02,22.05"/>
				<path fill="#255485" d="M35.54,31.46c0,0-4.6-0.33-4.67-5.19c-0.07-4.85-1.66-6.4-2.12-6.97c0,0,0.84,3.04-0.67,6.37
					C26.62,29.13,27.08,33.95,35.54,31.46"/>
				<path fill="#255485" d="M33.01,15.14c0-0.02,1.15-0.44,2.13-1.24c1.68-1.36,3.29-1.32,4.3-0.66c1.44,0.95,1.66,1.39,3.18,1.05
					c0,0-1.12,4.09-4.71,2.22C34.85,14.91,33.02,15.15,33.01,15.14"/>
				<path fill="#255485" d="M36.07,8.86c0,0-2.79-0.38-4.55,1.94c-1.15,1.52-1.72,3.1-3.51,3.82c0,0,0.01-0.01,0.03-0.02l-0.03,0.02
					c2.05-2.05,0.51-4.07,0.36-4.26c-1.13-1.39-2.42-0.31-2.42-0.31S28.82,5.17,36.07,8.86"/>
				<polygon fill="#255485" points="13.68,36.72 13.68,37.54 14.88,37.54 14.88,42.93 15.79,42.93 15.79,37.54 16.99,37.54 
					16.99,36.72 				"/>
				<polygon fill="#255485" points="18.06,42.93 18.06,36.72 21.41,36.72 21.41,37.54 18.96,37.54 18.96,39.37 21.41,39.37 
					21.41,40.21 18.96,40.21 18.96,42.1 21.41,42.1 21.41,42.93 				"/>
				<path fill="#255485" d="M26.85,42.93l-0.69-1.83h-2.24l-0.69,1.83h-0.96l2.36-6.21h0.81l2.36,6.21H26.85z M25.85,40.26
					l-0.79-2.38h-0.02l-0.8,2.38H25.85z"/>
				<polygon fill="#255485" points="34.36,42.93 34.36,37.67 34.33,37.67 32.24,42.93 31.7,42.93 29.6,37.67 29.58,37.67 
					29.58,42.93 28.68,42.93 28.68,36.72 30.1,36.72 31.97,41.47 33.84,36.72 35.26,36.72 35.26,42.93 				"/>
				<g>
					<path fill="#255485" d="M43.68,38.28c-0.26-0.29-0.78-0.85-1.7-0.85c-1.3,0-2.3,1.11-2.3,2.41c0,1.37,1.13,2.38,2.31,2.38
						c0.17,0,1.54-0.02,2.14-1.54h-2.9v-0.83h3.93c-0.03,2.08-1.7,3.21-3.21,3.21c-1.81,0-3.18-1.47-3.18-3.21
						c0-1.79,1.39-3.24,3.17-3.24c1.06,0,2.19,0.56,2.79,1.68L43.68,38.28L43.68,38.28z"/>
					<path fill="#255485" d="M46.2,36.72h1.61c1.76,0,1.94,1.28,1.94,1.72c0,0.69-0.34,0.99-0.56,1.18
						c0.26,0.15,0.92,0.55,0.92,1.52c0,0.64-0.36,1.8-2.07,1.8h-1.86L46.2,36.72L46.2,36.72z M47.11,39.3h0.74c0.84,0,1-0.51,1-0.87
						c0-0.88-0.84-0.88-1.05-0.88h-0.69L47.11,39.3L47.11,39.3z M47.11,42.1h0.98c0.91,0,1.12-0.65,1.12-0.98
						c0-0.23-0.1-0.44-0.22-0.62c-0.28-0.37-0.7-0.37-1.02-0.37h-0.87C47.11,40.13,47.11,42.1,47.11,42.1z"/>
					<path fill="#DB8E38" d="M30.74,56.59c-0.12,1.98-1.76,3.55-3.77,3.55s-3.65-1.57-3.77-3.55c-0.01-0.08-0.01-0.16-0.01-0.24
						c0-0.19,0.02-0.38,0.04-0.57c0.21-1.42,1.22-2.59,2.56-3.02c0.03-0.18,0.04-0.37,0.04-0.57c0-0.08-0.01-0.16-0.01-0.23
						c-1.83,0.47-3.21,2.06-3.38,3.99c-0.01,0.13-0.02,0.26-0.02,0.39c0,0.12,0.01,0.24,0.02,0.37c0.18,2.33,2.13,4.17,4.52,4.17
						s4.34-1.84,4.52-4.17C31.24,56.7,30.98,56.66,30.74,56.59"/>
					<path fill="#0C73B9" d="M26.58,51.85c-0.18-2.33-2.13-4.17-4.52-4.17c-2.51,0-4.54,2.03-4.54,4.54c0,2.5,2.03,4.54,4.54,4.54
						c0.13,0,0.26-0.01,0.39-0.02c-0.01-0.12-0.02-0.24-0.02-0.36c0-0.14,0.01-0.27,0.02-0.4c-0.13,0.01-0.26,0.02-0.39,0.02
						c-2.09,0-3.78-1.7-3.78-3.78c0-2.09,1.69-3.78,3.78-3.78c2.01,0,3.65,1.57,3.77,3.55c0.01,0.08,0.01,0.16,0.01,0.24
						c0,0.19-0.02,0.37-0.04,0.57c-0.21,1.43-1.23,2.59-2.56,3.03c-0.03,0.18-0.04,0.37-0.04,0.57c0,0.08,0,0.16,0.01,0.24
						c1.83-0.47,3.21-2.06,3.38-3.99c0.01-0.13,0.02-0.26,0.02-0.4C26.59,52.08,26.59,51.96,26.58,51.85"/>
					<path fill="#000100" d="M32.28,55.97c-0.13,0.01-0.26,0.02-0.39,0.02c-0.13,0-0.27-0.01-0.4-0.02
						c-0.27-0.03-0.53-0.09-0.78-0.17c-1.34-0.44-2.34-1.6-2.56-3.02c-0.25-0.08-0.51-0.14-0.78-0.17c0.17,1.93,1.55,3.52,3.38,3.99
						c0.24,0.07,0.5,0.1,0.75,0.13c0.13,0.01,0.26,0.02,0.39,0.02c0.13,0,0.26-0.01,0.39-0.02c-0.01-0.12-0.02-0.24-0.02-0.37
						C32.26,56.23,32.27,56.1,32.28,55.97"/>
					<path fill="#DB8E38" d="M28.11,51.97c-0.24-0.06-0.49-0.1-0.75-0.13c-0.13-0.01-0.26-0.02-0.39-0.02
						c-0.13,0-0.26,0.01-0.39,0.02c0.01,0.12,0.02,0.24,0.02,0.37c0,0.13-0.01,0.27-0.02,0.4c0.13-0.01,0.26-0.03,0.39-0.03
						s0.27,0.01,0.39,0.03c0.27,0.03,0.53,0.08,0.78,0.17c1.33,0.44,2.34,1.6,2.56,3.02c0.25,0.08,0.51,0.14,0.78,0.17
						C31.32,54.03,29.94,52.45,28.11,51.97"/>
					<path fill="#000100" d="M36.41,51.85c-0.18-2.33-2.14-4.17-4.52-4.17c-2.39,0-4.34,1.84-4.52,4.17
						c0.25,0.03,0.51,0.07,0.75,0.13c0.12-1.98,1.77-3.55,3.77-3.55c2.01,0,3.65,1.57,3.77,3.55c0.01,0.08,0.01,0.16,0.01,0.24
						c0,0.19-0.02,0.37-0.04,0.57c-0.21,1.43-1.22,2.59-2.56,3.03c-0.03,0.18-0.04,0.37-0.04,0.57c0,0.08,0,0.16,0.01,0.24
						c1.83-0.47,3.21-2.06,3.38-3.99c0.01-0.13,0.02-0.26,0.02-0.4C36.42,52.08,36.42,51.96,36.41,51.85"/>
					<path fill="#297B40" d="M40.57,56.59c-0.12,1.98-1.76,3.55-3.77,3.55s-3.65-1.57-3.77-3.55c-0.01-0.08-0.01-0.16-0.01-0.24
						c0-0.19,0.02-0.38,0.04-0.57c0.22-1.42,1.22-2.59,2.56-3.02c0.03-0.18,0.04-0.37,0.04-0.57c0-0.08,0-0.16-0.01-0.23
						c-1.83,0.47-3.21,2.06-3.38,3.99c-0.01,0.13-0.02,0.26-0.02,0.39c0,0.12,0.01,0.24,0.02,0.37c0.18,2.33,2.13,4.17,4.52,4.17
						c2.38,0,4.34-1.84,4.52-4.17C41.06,56.7,40.81,56.66,40.57,56.59"/>
					<path fill="#C62F42" d="M41.71,47.67c-2.38,0-4.34,1.84-4.52,4.17c0.26,0.03,0.51,0.07,0.75,0.13
						c0.12-1.98,1.77-3.55,3.77-3.55c2.09,0,3.78,1.69,3.78,3.78c0,2.08-1.7,3.78-3.78,3.78c-0.13,0-0.26-0.01-0.39-0.02
						c-0.27-0.03-0.53-0.09-0.78-0.17c-1.34-0.44-2.35-1.6-2.56-3.02c-0.25-0.08-0.51-0.14-0.78-0.17c0.17,1.93,1.54,3.52,3.37,3.99
						c0.24,0.06,0.5,0.1,0.75,0.13c0.13,0.01,0.26,0.02,0.39,0.02c2.5,0,4.54-2.03,4.54-4.54C46.25,49.7,44.22,47.67,41.71,47.67"/>
					<path fill="#297B40" d="M37.94,51.97c-0.24-0.06-0.49-0.1-0.75-0.13c-0.13-0.01-0.26-0.02-0.39-0.02
						c-0.13,0-0.26,0.01-0.39,0.02c0.01,0.12,0.02,0.24,0.02,0.37c0,0.13-0.01,0.27-0.02,0.4c0.13-0.01,0.26-0.03,0.39-0.03
						c0.13,0,0.27,0.01,0.4,0.03c0.27,0.03,0.53,0.08,0.78,0.17c1.34,0.44,2.35,1.6,2.56,3.02c0.25,0.08,0.51,0.14,0.78,0.17
						C41.15,54.03,39.76,52.45,37.94,51.97"/>
				</g>
				<rect x="22.22" y="69.97" fill="#255485" width="19.37" height="0.76"/>
				<g>
					<path fill="#255485" d="M15.39,113.94c-0.97,0-1.68-0.79-1.68-1.68c0-0.88,0.7-1.68,1.68-1.68c0.96,0,1.68,0.77,1.68,1.69
						C17.07,113.14,16.35,113.94,15.39,113.94z M15.39,111.01c-0.84,0-1.21,0.73-1.21,1.25c0,0.53,0.38,1.25,1.21,1.25
						c0.84,0,1.21-0.72,1.21-1.24C16.6,111.7,16.19,111.01,15.39,111.01z"/>
					<path fill="#255485" d="M17.48,113.88v-3.23h1.64v0.44h-1.17v0.97h1.17v0.44h-1.17v1.4L17.48,113.88L17.48,113.88z"/>
					<path fill="#255485" d="M19.59,113.88v-3.23h1.64v0.44h-1.17v0.97h1.17v0.44h-1.17v1.4L19.59,113.88L19.59,113.88z"/>
					<path fill="#255485" d="M21.7,113.88v-3.23h0.47v3.23H21.7z"/>
					<path fill="#255485" d="M25.11,111.46c-0.1-0.11-0.38-0.45-0.91-0.45c-0.67,0-1.2,0.56-1.2,1.24c0,0.7,0.56,1.25,1.19,1.25
						c0.34,0,0.66-0.17,0.88-0.43h0.58c-0.36,0.64-0.97,0.86-1.47,0.86c-0.91,0-1.66-0.78-1.66-1.69c0-0.94,0.76-1.66,1.66-1.66
						c0.24,0,0.64,0.06,0.98,0.31c0.3,0.21,0.42,0.43,0.5,0.57L25.11,111.46L25.11,111.46z"/>
					<path fill="#255485" d="M26.11,113.88v-3.23h0.47v3.23H26.11z"/>
					<path fill="#255485" d="M29.34,113.88l-0.36-0.95h-1.17l-0.36,0.95h-0.5l1.23-3.23h0.43l1.23,3.23H29.34z M28.82,112.48
						l-0.41-1.24H28.4l-0.42,1.24H28.82z"/>
					<path fill="#255485" d="M30.16,113.88v-3.23h0.47v2.8h1.12v0.44L30.16,113.88L30.16,113.88z"/>
					<path fill="#255485" d="M33.72,113.88h-0.47v-3.23h0.93c0.78,0,1.14,0.4,1.14,0.98s-0.37,0.98-1.14,0.98h-0.46V113.88z
						 M33.72,112.16h0.46c0.54,0,0.67-0.3,0.67-0.55s-0.13-0.55-0.67-0.55h-0.46V112.16z"/>
					<path fill="#255485" d="M37.49,113.88l-0.36-0.95h-1.17l-0.36,0.95h-0.5l1.23-3.23h0.43l1.23,3.23H37.49z M36.97,112.48
						l-0.41-1.24h-0.01l-0.42,1.24H36.97z"/>
					<path fill="#255485" d="M39.88,113.88l-1.06-1.51h-0.01v1.5h-0.48v-3.23h1c0.45,0,0.69,0.11,0.86,0.27
						c0.21,0.2,0.3,0.5,0.3,0.77c0,0.85-0.71,0.99-0.92,0.99l0.91,1.21H39.88z M38.81,112.31h0.32c0.19,0,0.89-0.01,0.89-0.64
						c0-0.27-0.18-0.6-0.71-0.6h-0.5V112.31z"/>
					<path fill="#255485" d="M41.3,113.88v-2.8h-0.62v-0.44h1.72v0.44h-0.62v2.8H41.3z"/>
					<path fill="#255485" d="M44.83,113.88l-1.6-2.5h-0.01v2.5h-0.47v-3.23h0.51l1.58,2.47h0.01v-2.47h0.47v3.23H44.83z"/>
					<path fill="#255485" d="M45.8,113.88v-3.23h1.74v0.44h-1.27v0.95h1.27v0.44h-1.27v0.98h1.27v0.44L45.8,113.88L45.8,113.88z"/>
					<path fill="#255485" d="M49.54,113.88l-1.07-1.51h-0.01v1.5h-0.47v-3.23h1c0.45,0,0.69,0.11,0.86,0.27
						c0.21,0.2,0.3,0.5,0.3,0.77c0,0.85-0.71,0.99-0.92,0.99l0.91,1.21H49.54z M48.46,112.31h0.32c0.19,0,0.89-0.01,0.89-0.64
						c0-0.27-0.18-0.6-0.71-0.6h-0.5V112.31z"/>
				</g>
			</g>
		</g>
	</g>
</g>
<g id="end" display="none">
	<rect x="-17" display="inline" fill="#FFFFFF" width="320" height="480"/>
	<g display="inline">
		<g>
			<path fill="#C63033" d="M71.32,121.18c1.31-0.86,2.41-1.66,4.15,0.35c4.03,4.65-5.14,10.79-5.14,10.79
				c0.78,0.96,0.97,2.26,1.21,3.82c0.61,3.97-2.02,7.88-2.02,7.88l-6.4-0.74l-0.58-4.42c0.62,0.85,1.63,1.03,2.84,0.52
				c1.51-0.63,1.57-2.1,1.29-3.52c-0.4-1.99-1.92-3.06-3.47-2.82c-1.55,0.24-1.97,1.64-1.97,1.64c-3.1-1.42-2.17-4.62-2.17-4.62
				c0.2-1.53-1.56-0.91-1.56-0.91c3.06-2.82,4.58-3.44,6.15-3.55c2.67-0.19,3.72,2.03,3.72,2.03c0.91-1.54,2.36-3.44,2.36-3.44
				c-1.86-0.54-3.97,0.71-3.97,0.71l1.48-3.13L71.32,121.18z"/>
		</g>
	</g>
</g>
</svg>
